<?xml version="1.0" encoding="UTF-8" standalone="no"?>
<!-- Created with Inkscape (http://www.inkscape.org/) -->

<svg
   width="200mm"
   height="200mm"
   viewBox="0 0 200 200"
   version="1.1"
   id="svg5"
   inkscape:version="1.1.2 (0a00cf5339, 2022-02-04)"
   sodipodi:docname="icon.svg"
   xmlns:inkscape="http://www.inkscape.org/namespaces/inkscape"
   xmlns:sodipodi="http://sodipodi.sourceforge.net/DTD/sodipodi-0.dtd"
   xmlns="http://www.w3.org/2000/svg"
   xmlns:svg="http://www.w3.org/2000/svg">
  <sodipodi:namedview
     id="namedview7"
     pagecolor="#ffffff"
     bordercolor="#666666"
     borderopacity="1.0"
     inkscape:pageshadow="2"
     inkscape:pageopacity="0.0"
     inkscape:pagecheckerboard="0"
     inkscape:document-units="mm"
     showgrid="false"
     inkscape:zoom="0.32026164"
     inkscape:cx="182.66315"
     inkscape:cy="804.0301"
     inkscape:window-width="1858"
     inkscape:window-height="1016"
     inkscape:window-x="0"
     inkscape:window-y="0"
     inkscape:window-maximized="1"
     inkscape:current-layer="layer1" />
  <defs
     id="defs2">
    <linearGradient
       x1="70"
       y1="0"
       x2="0"
       y2="70"
       gradientUnits="userSpaceOnUse"
       id="color-1">
      <stop
         offset="0"
         stop-color="#b8c8f3"
         id="stop1105" />
      <stop
         offset="1"
         stop-color="#8595c0"
         id="stop1107" />
    </linearGradient>
  </defs>
  <g
     inkscape:label="Capa 1"
     inkscape:groupmode="layer"
     id="layer1">
    <path
       id="path1927"
       style="fill:#7d88a5;stroke-width:0.0666221;paint-order:stroke fill markers;fill-opacity:1"
       d="m 183.14872,134.40267 a 89.999999,89.999999 0 0 0 -1.9e-4,-68.882846 l -46.24415,19.154953 a 39.999999,39.999999 0 0 1 0.0502,30.593653 z"
       inkscape:export-filename="/home/etobella/chevron/odoo/custom/src/helpdesk/helpdesk_mgmt/static/description/path1927.png"
       inkscape:export-xdpi="91.328003"
       inkscape:export-ydpi="91.328003" />
    <path
       id="path1927-7"
       style="fill:#b8c8f3;stroke-width:0.0666221;paint-order:stroke fill markers;fill-opacity:1"
       d="M 183.09852,65.540535 A 89.999999,89.999999 0 0 0 134.39085,16.833148 L 115.2359,63.077291 a 39.999999,39.999999 0 0 1 21.66848,21.597486 z"
       inkscape:export-filename="/home/etobella/chevron/odoo/custom/src/helpdesk/helpdesk_mgmt/static/description/path1927.png"
       inkscape:export-xdpi="91.328003"
       inkscape:export-ydpi="91.328003" />
    <path
       id="path1927-9"
       style="fill:#7d88a5;stroke-width:0.0666221;paint-order:stroke fill markers;fill-opacity:1"
       d="m 134.37014,16.883152 a 89.999999,89.999999 0 0 0 -68.882838,1.94e-4 l 19.154954,46.24415 a 39.999999,39.999999 0 0 1 30.593644,-0.0502 z"
       inkscape:export-filename="/home/etobella/chevron/odoo/custom/src/helpdesk/helpdesk_mgmt/static/description/path1927.png"
       inkscape:export-xdpi="91.328003"
       inkscape:export-ydpi="91.328003" />
    <path
       id="path1927-7-3"
       style="fill:#b8c8f3;stroke-width:0.0666221;paint-order:stroke fill markers;fill-opacity:1"
       d="M 65.508011,16.933355 A 89.999999,89.999999 0 0 0 16.800624,65.641024 L 63.044767,84.795975 A 39.999999,39.999999 0 0 1 84.642256,63.127496 Z"
       inkscape:export-filename="/home/etobella/chevron/odoo/custom/src/helpdesk/helpdesk_mgmt/static/description/path1927.png"
       inkscape:export-xdpi="91.328003"
       inkscape:export-ydpi="91.328003" />
    <path
       id="path1927-6"
       style="fill:#b8c8f3;stroke-width:0.0666221;paint-order:stroke fill markers;fill-opacity:1"
       d="m 183.14872,134.40267 a 89.999999,89.999999 0 0 1 -48.70767,48.70739 L 115.2861,136.86592 a 39.999999,39.999999 0 0 0 21.66848,-21.59749 z"
       inkscape:export-filename="/home/etobella/chevron/odoo/custom/src/helpdesk/helpdesk_mgmt/static/description/path1927.png"
       inkscape:export-xdpi="91.328003"
       inkscape:export-ydpi="91.328003" />
    <path
       id="path1927-7-0"
       style="fill:#7d88a5;stroke-width:0.0666221;paint-order:stroke fill markers;fill-opacity:1"
       d="m 134.42034,183.06006 a 89.999999,89.999999 0 0 1 -68.882845,-2e-4 L 84.69245,136.81571 a 39.999999,39.999999 0 0 0 30.59365,0.0502 z"
       inkscape:export-filename="/home/etobella/chevron/odoo/custom/src/helpdesk/helpdesk_mgmt/static/description/path1927.png"
       inkscape:export-xdpi="91.328003"
       inkscape:export-ydpi="91.328003" />
    <path
       id="path1927-9-6"
       style="fill:#b8c8f3;stroke-width:0.0666221;paint-order:stroke fill markers;fill-opacity:1"
       d="M 65.558206,183.00986 A 89.999999,89.999999 0 0 1 16.850821,134.3022 l 46.244154,-19.15496 a 39.999999,39.999999 0 0 0 21.597475,21.66847 z"
       inkscape:export-filename="/home/etobella/chevron/odoo/custom/src/helpdesk/helpdesk_mgmt/static/description/path1927.png"
       inkscape:export-xdpi="91.328003"
       inkscape:export-ydpi="91.328003" />
    <path
       id="path1927-7-3-2"
       style="fill:#7d88a5;stroke-width:0.0666221;paint-order:stroke fill markers;fill-opacity:1"
       d="m 16.900827,134.28148 a 89.999999,89.999999 0 0 1 2e-4,-68.882845 L 63.14517,84.553587 a 39.999999,39.999999 0 0 0 -0.0502,30.593653 z"
       inkscape:export-filename="/home/etobella/chevron/odoo/custom/src/helpdesk/helpdesk_mgmt/static/description/path1927.png"
       inkscape:export-xdpi="91.328003"
       inkscape:export-ydpi="91.328003" />
  </g>
</svg>
